<svg xmlns="http://www.w3.org/2000/svg" viewBox="0 0 200 130" width="200" height="130" role="img" aria-label="Itaú">
  <path fill="#EC7000" d="M20 65C20 30 35 15 70 15h60c35 0 50 15 50 50s-15 50-50 50H70C35 115 20 100 20 65Z"/>
  <g fill="#fff">
    <rect x="55" y="58" width="11" height="38" rx="2"/>
    <circle cx="60.5" cy="48" r="6.5"/>
    <path d="M78 58h11v28c0 1.5 1 2 2.5 2H95v8h-7c-7 0-10-3-10-10V58Z"/>
    <path d="M70 58h26v9H70z"/>
    <path d="M118 57c9 0 15 5 15 15v24h-10v-4c-2 3-6 5-10 5-8 0-13-5-13-12 0-8 6-12 15-12h8c0-4-2-6-6-6-3 0-5 1-7 3l-6-6c3-4 8-7 14-7Zm-1 35c4 0 6-2 6-6v-1h-6c-3 0-5 1-5 4 0 2 2 3 5 3Z"/>
    <path d="M140 58h10v22c0 4 2 6 6 6s6-2 6-6V58h10v38h-10v-4c-2 3-5 5-9 5-8 0-13-5-13-14V58Z"/>
    <path d="M150 40l8 9h-7l-6-9zM163 40l-6 9h-7l8-9z"/>
  </g>
</svg>
